<?xml version="1.0" encoding="UTF-8" standalone="no"?>
<svg
   viewBox="0 0 1080 900"
   version="1.1"
   id="svg154"
   sodipodi:docname="bg-bandera-AR.svg"
   xml:space="preserve"
   inkscape:version="1.2.2 (732a01da63, 2022-12-09)"
   xmlns:inkscape="http://www.inkscape.org/namespaces/inkscape"
   xmlns:sodipodi="http://sodipodi.sourceforge.net/DTD/sodipodi-0.dtd"
   xmlns:xlink="http://www.w3.org/1999/xlink"
   xmlns="http://www.w3.org/2000/svg"
   xmlns:svg="http://www.w3.org/2000/svg"><sodipodi:namedview
     id="namedview156"
     pagecolor="#ffffff"
     bordercolor="#666666"
     borderopacity="1.0"
     inkscape:showpageshadow="2"
     inkscape:pageopacity="0.0"
     inkscape:pagecheckerboard="0"
     inkscape:deskcolor="#d1d1d1"
     showgrid="false"
     inkscape:zoom="0.76514096"
     inkscape:cx="520.81906"
     inkscape:cy="473.11544"
     inkscape:window-width="1920"
     inkscape:window-height="1027"
     inkscape:window-x="-8"
     inkscape:window-y="-8"
     inkscape:window-maximized="1"
     inkscape:current-layer="svg154" /><defs
     id="defs148"><linearGradient
       inkscape:collect="always"
       id="linearGradient15878"><stop
         style="stop-color:#216fdf;stop-opacity:1;"
         offset="0"
         id="stop15874" /><stop
         style="stop-color:#74acdf;stop-opacity:0;"
         offset="1"
         id="stop15876" /></linearGradient><linearGradient
       id="a"
       gradientUnits="userSpaceOnUse"
       x1="0"
       x2="0"
       y1="0"
       y2="100%"
       gradientTransform="rotate(350,780,493)"><stop
         offset="0"
         stop-color="#1500FF"
         id="stop2" /><stop
         offset="1"
         stop-color="#C600FF"
         id="stop4" /></linearGradient><pattern
       patternUnits="userSpaceOnUse"
       id="b"
       width="540"
       height="450"
       x="0"
       y="0"
       viewBox="0 0 1080 900"><g
         fill-opacity="0.1"
         id="g145"><polygon
           fill="#444"
           points="90 150 0 300 180 300"
           id="polygon7" /><polygon
           points="90 150 180 0 0 0"
           id="polygon9" /><polygon
           fill="#AAA"
           points="270 150 360 0 180 0"
           id="polygon11" /><polygon
           fill="#DDD"
           points="450 150 360 300 540 300"
           id="polygon13" /><polygon
           fill="#999"
           points="450 150 540 0 360 0"
           id="polygon15" /><polygon
           points="630 150 540 300 720 300"
           id="polygon17" /><polygon
           fill="#DDD"
           points="630 150 720 0 540 0"
           id="polygon19" /><polygon
           fill="#444"
           points="810 150 720 300 900 300"
           id="polygon21" /><polygon
           fill="#FFF"
           points="810 150 900 0 720 0"
           id="polygon23" /><polygon
           fill="#DDD"
           points="990 150 900 300 1080 300"
           id="polygon25" /><polygon
           fill="#444"
           points="990 150 1080 0 900 0"
           id="polygon27" /><polygon
           fill="#DDD"
           points="90 450 0 600 180 600"
           id="polygon29" /><polygon
           points="90 450 180 300 0 300"
           id="polygon31" /><polygon
           fill="#666"
           points="270 450 180 600 360 600"
           id="polygon33" /><polygon
           fill="#AAA"
           points="270 450 360 300 180 300"
           id="polygon35" /><polygon
           fill="#DDD"
           points="450 450 360 600 540 600"
           id="polygon37" /><polygon
           fill="#999"
           points="450 450 540 300 360 300"
           id="polygon39" /><polygon
           fill="#999"
           points="630 450 540 600 720 600"
           id="polygon41" /><polygon
           fill="#FFF"
           points="630 450 720 300 540 300"
           id="polygon43" /><polygon
           points="810 450 720 600 900 600"
           id="polygon45" /><polygon
           fill="#DDD"
           points="810 450 900 300 720 300"
           id="polygon47" /><polygon
           fill="#AAA"
           points="990 450 900 600 1080 600"
           id="polygon49" /><polygon
           fill="#444"
           points="990 450 1080 300 900 300"
           id="polygon51" /><polygon
           fill="#222"
           points="90 750 0 900 180 900"
           id="polygon53" /><polygon
           points="270 750 180 900 360 900"
           id="polygon55" /><polygon
           fill="#DDD"
           points="270 750 360 600 180 600"
           id="polygon57" /><polygon
           points="450 750 540 600 360 600"
           id="polygon59" /><polygon
           points="630 750 540 900 720 900"
           id="polygon61" /><polygon
           fill="#444"
           points="630 750 720 600 540 600"
           id="polygon63" /><polygon
           fill="#AAA"
           points="810 750 720 900 900 900"
           id="polygon65" /><polygon
           fill="#666"
           points="810 750 900 600 720 600"
           id="polygon67" /><polygon
           fill="#999"
           points="990 750 900 900 1080 900"
           id="polygon69" /><polygon
           fill="#999"
           points="180 0 90 150 270 150"
           id="polygon71" /><polygon
           fill="#444"
           points="360 0 270 150 450 150"
           id="polygon73" /><polygon
           fill="#FFF"
           points="540 0 450 150 630 150"
           id="polygon75" /><polygon
           points="900 0 810 150 990 150"
           id="polygon77" /><polygon
           fill="#222"
           points="0 300 -90 450 90 450"
           id="polygon79" /><polygon
           fill="#FFF"
           points="0 300 90 150 -90 150"
           id="polygon81" /><polygon
           fill="#FFF"
           points="180 300 90 450 270 450"
           id="polygon83" /><polygon
           fill="#666"
           points="180 300 270 150 90 150"
           id="polygon85" /><polygon
           fill="#222"
           points="360 300 270 450 450 450"
           id="polygon87" /><polygon
           fill="#FFF"
           points="360 300 450 150 270 150"
           id="polygon89" /><polygon
           fill="#444"
           points="540 300 450 450 630 450"
           id="polygon91" /><polygon
           fill="#222"
           points="540 300 630 150 450 150"
           id="polygon93" /><polygon
           fill="#AAA"
           points="720 300 630 450 810 450"
           id="polygon95" /><polygon
           fill="#666"
           points="720 300 810 150 630 150"
           id="polygon97" /><polygon
           fill="#FFF"
           points="900 300 810 450 990 450"
           id="polygon99" /><polygon
           fill="#999"
           points="900 300 990 150 810 150"
           id="polygon101" /><polygon
           points="0 600 -90 750 90 750"
           id="polygon103" /><polygon
           fill="#666"
           points="0 600 90 450 -90 450"
           id="polygon105" /><polygon
           fill="#AAA"
           points="180 600 90 750 270 750"
           id="polygon107" /><polygon
           fill="#444"
           points="180 600 270 450 90 450"
           id="polygon109" /><polygon
           fill="#444"
           points="360 600 270 750 450 750"
           id="polygon111" /><polygon
           fill="#999"
           points="360 600 450 450 270 450"
           id="polygon113" /><polygon
           fill="#666"
           points="540 600 630 450 450 450"
           id="polygon115" /><polygon
           fill="#222"
           points="720 600 630 750 810 750"
           id="polygon117" /><polygon
           fill="#FFF"
           points="900 600 810 750 990 750"
           id="polygon119" /><polygon
           fill="#222"
           points="900 600 990 450 810 450"
           id="polygon121" /><polygon
           fill="#DDD"
           points="0 900 90 750 -90 750"
           id="polygon123" /><polygon
           fill="#444"
           points="180 900 270 750 90 750"
           id="polygon125" /><polygon
           fill="#FFF"
           points="360 900 450 750 270 750"
           id="polygon127" /><polygon
           fill="#AAA"
           points="540 900 630 750 450 750"
           id="polygon129" /><polygon
           fill="#FFF"
           points="720 900 810 750 630 750"
           id="polygon131" /><polygon
           fill="#222"
           points="900 900 990 750 810 750"
           id="polygon133" /><polygon
           fill="#222"
           points="1080 300 990 450 1170 450"
           id="polygon135" /><polygon
           fill="#FFF"
           points="1080 300 1170 150 990 150"
           id="polygon137" /><polygon
           points="1080 600 990 750 1170 750"
           id="polygon139" /><polygon
           fill="#666"
           points="1080 600 1170 450 990 450"
           id="polygon141" /><polygon
           fill="#DDD"
           points="1080 900 1170 750 990 750"
           id="polygon143" /></g></pattern><linearGradient
       inkscape:collect="always"
       xlink:href="#linearGradient15878"
       id="linearGradient15880"
       x1="886.11121"
       y1="64.738968"
       x2="1074.3119"
       y2="295.36191"
       gradientUnits="userSpaceOnUse"
       gradientTransform="scale(1,3.0097866)" /></defs><rect
     style="fill:url(#linearGradient15880);fill-opacity:1;stroke:none;stroke-width:26.3878;stroke-linecap:round;stroke-linejoin:bevel;stroke-miterlimit:10"
     id="rect8845"
     width="1079.5397"
     height="898.3736"
     x="0.23016357"
     y="0" /><g
     id="sun"
     fill="#fcbf49"
     stroke="#843511"
     stroke-width="1.5"
     transform="matrix(0.57458114,0,0,0.57458114,974.98375,319.30513)"><g
       id="rays-16"><g
         id="rays-8"><g
           id="rays-4"><g
             id="rays-2"><path
               d="m -8,0 6,159.5 c 0,0 0,3 2,3 2,0 2,-3 2,-3 L 8,0"
               id="path11084" /><path
               d="M -4,0 0,109.5 4,0"
               fill="#843511"
               stroke="none"
               id="path11086" /><g
               transform="rotate(11.5)"
               id="g11092"><path
                 d="m -4.5,53.5 c -5,21.5 6,36 0.5,55 -5.5,19 3,32 4,40 1,8 -5,11.5 -3,13 C -1,163 5,158 5.5,147 6,136 -1.5,131.25 5,108 11.5,84.75 1,77 8,56"
                 id="path11088" /><path
                 d="M -1,58 C -4,79 6,90.5 0,109 8,95 -2,81 3,59"
                 fill="#843511"
                 stroke="none"
                 id="path11090" /></g></g><use
             xlink:href="#rays-2"
             transform="scale(-1)"
             id="use11095" /></g><use
           xlink:href="#rays-4"
           transform="rotate(90)"
           id="use11098" /></g><use
         xlink:href="#rays-8"
         transform="rotate(45)"
         id="use11101" /></g><use
       xlink:href="#rays-16"
       transform="rotate(22.5)"
       id="use11104" /><circle
       r="65"
       stroke-width="1"
       id="circle11106"
       cx="0"
       cy="0" /><g
       id="face_right"
       fill="#843511"
       stroke="none"><path
         id="eyebrow_nose"
         d="M 41,-14 C 29.5,-24 15,-25.5 7,-18 A 140,50 10 0 0 8.5,8.5 C 8,8.5 7,9 6.5,9.5 A 80,50 10 0 1 4,-19 c 11,-9 26,-10 37,5" /><path
         id="uppalpebra"
         d="m 23,-17 c -6.5,0 -8,1.5 -11,4 -3,2.5 -4.5,2 -5,2.5 -0.5,0.5 0,2 1,1.5 1,-0.5 3,-1.5 6,-4 3,-2.5 6,-2.5 9,-2.5 9,0 14,7.5 15,7 C 39,-9 33,-17 23,-17" /><path
         id="upeyecontour"
         d="M 34.5,-8.5 C 28,-15.5 16,-16 11,-8 h 2 c 5,-8 17,-4.5 18,-1 v 1" /><circle
         id="pupil"
         cx="22"
         cy="-9"
         r="4.5" /><path
         id="loweyecontour"
         d="m 11,-8 c 5,4.5 16,5 23.5,-0.5 L 31,-9 c -5,5.5 -13,5 -18,1 v -1" /><path
         id="lowpalpebra"
         d="M 35,-6 C 26.5,0.5 18,0 13,-3 8,-6 8,-7 9,-7 c 1,0 2,1 6,3 4,2 10,2 20,-2" /><path
         id="nose"
         d="m 10.5,9 a 3,3 0 1 1 -4,3 C 6,13 4,16 0,16 h -1 l 1,1.5 c 1,0 4,0 6,-1.5 a 4.5,4.5 0 1 0 4.5,-7" /><path
         id="uplip1"
         d="M 16.5,30 C 12,27 10,22.5 5,22.5 4,22.5 2,23 0,24 h -1 l 1,1.5 c 2,0 5,-2.5 8.5,-0.5 3.5,2 5.5,4 8,5" /><path
         id="midlip"
         d="M 15,30 C 5,27 3,29 0,29 h -1 l 1,2 c 4,0 6,-3 15,-1" /><path
         id="uplip2"
         d="M 16.5,30 C 5.5,29 9,35.5 0,35.5 H -1 L 0,37 c 11,0 6,-6 16.5,-7" /><path
         id="chin"
         d="M 9,46 A 9,9 0 0 0 -9,46 9.25,9.25 0 0 1 9,46" /></g><use
       xlink:href="#face_right"
       transform="scale(-1,1)"
       id="use11120" /></g></svg>
