<?xml version="1.0" encoding="UTF-8" standalone="no"?>
<svg
   viewBox="0 0 1080 900"
   version="1.1"
   id="svg71"
   sodipodi:docname="bg-triangles-raicyt.svg"
   inkscape:version="1.3 (0e150ed6c4, 2023-07-21)"
   xmlns:inkscape="http://www.inkscape.org/namespaces/inkscape"
   xmlns:sodipodi="http://sodipodi.sourceforge.net/DTD/sodipodi-0.dtd"
   xmlns:xlink="http://www.w3.org/1999/xlink"
   xmlns="http://www.w3.org/2000/svg"
   xmlns:svg="http://www.w3.org/2000/svg">
  <sodipodi:namedview
     id="namedview71"
     pagecolor="#ffffff"
     bordercolor="#000000"
     borderopacity="0.25"
     inkscape:showpageshadow="2"
     inkscape:pageopacity="0.0"
     inkscape:pagecheckerboard="0"
     inkscape:deskcolor="#d1d1d1"
     showgrid="false"
     inkscape:zoom="0.92333333"
     inkscape:cx="540.43321"
     inkscape:cy="437.00361"
     inkscape:window-width="1920"
     inkscape:window-height="1009"
     inkscape:window-x="-8"
     inkscape:window-y="-8"
     inkscape:window-maximized="1"
     inkscape:current-layer="svg71" />
  <defs
     id="defs70">
    <pattern
       inkscape:collect="always"
       xlink:href="#b"
       id="pattern71"
       patternTransform="translate(4.0902527e-7,0.15884861)" />
    <linearGradient
       id="a"
       gradientUnits="userSpaceOnUse"
       x1="0"
       x2="0"
       y1="0"
       y2="100%"
       gradientTransform="rotate(350,780,493)">
      <stop
         offset="0"
         stop-color="#1500FF"
         id="stop1"
         style="stop-color:#1e4e7c;stop-opacity:1;" />
      <stop
         offset="1"
         stop-color="#C600FF"
         id="stop2"
         style="stop-color:#4792ac;stop-opacity:1;" />
    </linearGradient>
    <pattern
       patternUnits="userSpaceOnUse"
       id="b"
       width="540"
       height="450"
       x="0"
       y="0"
       viewBox="0 0 1080 900">
      <g
         fill-opacity="0.1"
         id="g70">
        <polygon
           fill="#444"
           points="90 150 0 300 180 300"
           id="polygon2" />
        <polygon
           points="90 150 180 0 0 0"
           id="polygon3" />
        <polygon
           fill="#AAA"
           points="270 150 360 0 180 0"
           id="polygon4" />
        <polygon
           fill="#DDD"
           points="450 150 360 300 540 300"
           id="polygon5" />
        <polygon
           fill="#999"
           points="450 150 540 0 360 0"
           id="polygon6" />
        <polygon
           points="630 150 540 300 720 300"
           id="polygon7" />
        <polygon
           fill="#DDD"
           points="630 150 720 0 540 0"
           id="polygon8" />
        <polygon
           fill="#444"
           points="810 150 720 300 900 300"
           id="polygon9" />
        <polygon
           fill="#FFF"
           points="810 150 900 0 720 0"
           id="polygon10" />
        <polygon
           fill="#DDD"
           points="990 150 900 300 1080 300"
           id="polygon11" />
        <polygon
           fill="#444"
           points="990 150 1080 0 900 0"
           id="polygon12" />
        <polygon
           fill="#DDD"
           points="90 450 0 600 180 600"
           id="polygon13" />
        <polygon
           points="90 450 180 300 0 300"
           id="polygon14" />
        <polygon
           fill="#666"
           points="270 450 180 600 360 600"
           id="polygon15" />
        <polygon
           fill="#AAA"
           points="270 450 360 300 180 300"
           id="polygon16" />
        <polygon
           fill="#DDD"
           points="450 450 360 600 540 600"
           id="polygon17" />
        <polygon
           fill="#999"
           points="450 450 540 300 360 300"
           id="polygon18" />
        <polygon
           fill="#999"
           points="630 450 540 600 720 600"
           id="polygon19" />
        <polygon
           fill="#FFF"
           points="630 450 720 300 540 300"
           id="polygon20" />
        <polygon
           points="810 450 720 600 900 600"
           id="polygon21" />
        <polygon
           fill="#DDD"
           points="810 450 900 300 720 300"
           id="polygon22" />
        <polygon
           fill="#AAA"
           points="990 450 900 600 1080 600"
           id="polygon23" />
        <polygon
           fill="#444"
           points="990 450 1080 300 900 300"
           id="polygon24" />
        <polygon
           fill="#222"
           points="90 750 0 900 180 900"
           id="polygon25" />
        <polygon
           points="270 750 180 900 360 900"
           id="polygon26" />
        <polygon
           fill="#DDD"
           points="270 750 360 600 180 600"
           id="polygon27" />
        <polygon
           points="450 750 540 600 360 600"
           id="polygon28" />
        <polygon
           points="630 750 540 900 720 900"
           id="polygon29" />
        <polygon
           fill="#444"
           points="630 750 720 600 540 600"
           id="polygon30" />
        <polygon
           fill="#AAA"
           points="810 750 720 900 900 900"
           id="polygon31" />
        <polygon
           fill="#666"
           points="810 750 900 600 720 600"
           id="polygon32" />
        <polygon
           fill="#999"
           points="990 750 900 900 1080 900"
           id="polygon33" />
        <polygon
           fill="#999"
           points="180 0 90 150 270 150"
           id="polygon34" />
        <polygon
           fill="#444"
           points="360 0 270 150 450 150"
           id="polygon35" />
        <polygon
           fill="#FFF"
           points="540 0 450 150 630 150"
           id="polygon36" />
        <polygon
           points="900 0 810 150 990 150"
           id="polygon37" />
        <polygon
           fill="#222"
           points="0 300 -90 450 90 450"
           id="polygon38" />
        <polygon
           fill="#FFF"
           points="0 300 90 150 -90 150"
           id="polygon39" />
        <polygon
           fill="#FFF"
           points="180 300 90 450 270 450"
           id="polygon40" />
        <polygon
           fill="#666"
           points="180 300 270 150 90 150"
           id="polygon41" />
        <polygon
           fill="#222"
           points="360 300 270 450 450 450"
           id="polygon42" />
        <polygon
           fill="#FFF"
           points="360 300 450 150 270 150"
           id="polygon43" />
        <polygon
           fill="#444"
           points="540 300 450 450 630 450"
           id="polygon44" />
        <polygon
           fill="#222"
           points="540 300 630 150 450 150"
           id="polygon45" />
        <polygon
           fill="#AAA"
           points="720 300 630 450 810 450"
           id="polygon46" />
        <polygon
           fill="#666"
           points="720 300 810 150 630 150"
           id="polygon47" />
        <polygon
           fill="#FFF"
           points="900 300 810 450 990 450"
           id="polygon48" />
        <polygon
           fill="#999"
           points="900 300 990 150 810 150"
           id="polygon49" />
        <polygon
           points="0 600 -90 750 90 750"
           id="polygon50" />
        <polygon
           fill="#666"
           points="0 600 90 450 -90 450"
           id="polygon51" />
        <polygon
           fill="#AAA"
           points="180 600 90 750 270 750"
           id="polygon52" />
        <polygon
           fill="#444"
           points="180 600 270 450 90 450"
           id="polygon53" />
        <polygon
           fill="#444"
           points="360 600 270 750 450 750"
           id="polygon54" />
        <polygon
           fill="#999"
           points="360 600 450 450 270 450"
           id="polygon55" />
        <polygon
           fill="#666"
           points="540 600 630 450 450 450"
           id="polygon56" />
        <polygon
           fill="#222"
           points="720 600 630 750 810 750"
           id="polygon57" />
        <polygon
           fill="#FFF"
           points="900 600 810 750 990 750"
           id="polygon58" />
        <polygon
           fill="#222"
           points="900 600 990 450 810 450"
           id="polygon59" />
        <polygon
           fill="#DDD"
           points="0 900 90 750 -90 750"
           id="polygon60" />
        <polygon
           fill="#444"
           points="180 900 270 750 90 750"
           id="polygon61" />
        <polygon
           fill="#FFF"
           points="360 900 450 750 270 750"
           id="polygon62" />
        <polygon
           fill="#AAA"
           points="540 900 630 750 450 750"
           id="polygon63" />
        <polygon
           fill="#FFF"
           points="720 900 810 750 630 750"
           id="polygon64" />
        <polygon
           fill="#222"
           points="900 900 990 750 810 750"
           id="polygon65" />
        <polygon
           fill="#222"
           points="1080 300 990 450 1170 450"
           id="polygon66" />
        <polygon
           fill="#FFF"
           points="1080 300 1170 150 990 150"
           id="polygon67" />
        <polygon
           points="1080 600 990 750 1170 750"
           id="polygon68" />
        <polygon
           fill="#666"
           points="1080 600 1170 450 990 450"
           id="polygon69" />
        <polygon
           fill="#DDD"
           points="1080 900 1170 750 990 750"
           id="polygon70" />
      </g>
    </pattern>
  </defs>
  <rect
     x="0"
     y="0"
     fill="url(#a)"
     width="100%"
     height="100%"
     id="rect70" />
  <rect
     x="1.0707319e-06"
     y="0.15884149"
     fill="url(#b)"
     width="100%"
     height="100%"
     id="rect71"
     style="fill:url(#pattern71)" />
</svg>
