<?xml version="1.0" encoding="UTF-8" standalone="no"?>
<svg
   zoomAndPan="magnify"
   preserveAspectRatio="xMidYMid"
   version="1.0"
   viewBox="321.86 391.22 212.39694 51.224236"
   id="svg44890"
   sodipodi:docname="logo-RAICYT-sol3.svg"
   inkscape:version="1.3 (0e150ed6c4, 2023-07-21)"
   xmlns:inkscape="http://www.inkscape.org/namespaces/inkscape"
   xmlns:sodipodi="http://sodipodi.sourceforge.net/DTD/sodipodi-0.dtd"
   xmlns:xlink="http://www.w3.org/1999/xlink"
   xmlns="http://www.w3.org/2000/svg"
   xmlns:svg="http://www.w3.org/2000/svg">
  <sodipodi:namedview
     id="namedview44892"
     pagecolor="#ffffff"
     bordercolor="#666666"
     borderopacity="1.0"
     inkscape:showpageshadow="2"
     inkscape:pageopacity="0.0"
     inkscape:pagecheckerboard="0"
     inkscape:deskcolor="#d1d1d1"
     showgrid="false"
     inkscape:zoom="6.5977075"
     inkscape:cx="95.260361"
     inkscape:cy="25.387606"
     inkscape:window-width="1920"
     inkscape:window-height="1009"
     inkscape:window-x="-8"
     inkscape:window-y="-8"
     inkscape:window-maximized="1"
     inkscape:current-layer="sun" />
  <defs
     id="defs44818">
    <g
       id="g44816" />
    <rect
       x="-1166.0339"
       y="256.27118"
       width="1155.356"
       height="249.86441"
       id="rect34538" />
  </defs>
  <g
     fill="currentColor"
     fill-opacity="1"
     id="g44856"
     transform="translate(-1.7126661,7.6809688)">
    <g
       transform="translate(400.09173,434.61688)"
       id="g44854">
      <g
         id="g44852" />
    </g>
  </g>
  <g
     id="sun"
     fill="#fcbf49"
     stroke="#843511"
     stroke-width="1.5"
     transform="matrix(0.15688893,0,0,0.15688893,478.64483,418.83212)">
    <g
       id="g48179"
       transform="translate(191.21807,-12.747872)">
      <g
         id="rays-16">
        <g
           id="rays-8">
          <g
             id="rays-4">
            <g
               id="rays-2">
              <path
                 d="m -8,0 6,159.5 c 0,0 0,3 2,3 2,0 2,-3 2,-3 L 8,0"
                 id="path11084" />
              <path
                 d="M -4,0 0,109.5 4,0"
                 fill="#843511"
                 stroke="none"
                 id="path11086" />
              <g
                 transform="rotate(11.5)"
                 id="g11092">
                <path
                   d="m -4.5,53.5 c -5,21.5 6,36 0.5,55 -5.5,19 3,32 4,40 1,8 -5,11.5 -3,13 C -1,163 5,158 5.5,147 6,136 -1.5,131.25 5,108 11.5,84.75 1,77 8,56"
                   id="path11088" />
                <path
                   d="M -1,58 C -4,79 6,90.5 0,109 8,95 -2,81 3,59"
                   fill="#843511"
                   stroke="none"
                   id="path11090" />
              </g>
            </g>
            <use
               xlink:href="#rays-2"
               transform="scale(-1)"
               id="use11095" />
          </g>
          <use
             xlink:href="#rays-4"
             transform="rotate(90)"
             id="use11098" />
        </g>
        <use
           xlink:href="#rays-8"
           transform="rotate(45)"
           id="use11101" />
      </g>
      <use
         xlink:href="#rays-16"
         transform="rotate(22.5)"
         id="use11104" />
      <circle
         r="65"
         stroke-width="1"
         id="circle11106"
         cx="0"
         cy="0" />
      <g
         id="face_right"
         fill="#843511"
         stroke="none">
        <path
           id="eyebrow_nose"
           d="M 41,-14 C 29.5,-24 15,-25.5 7,-18 A 140,50 10 0 0 8.5,8.5 C 8,8.5 7,9 6.5,9.5 A 80,50 10 0 1 4,-19 c 11,-9 26,-10 37,5" />
        <path
           id="uppalpebra"
           d="m 23,-17 c -6.5,0 -8,1.5 -11,4 -3,2.5 -4.5,2 -5,2.5 -0.5,0.5 0,2 1,1.5 1,-0.5 3,-1.5 6,-4 3,-2.5 6,-2.5 9,-2.5 9,0 14,7.5 15,7 C 39,-9 33,-17 23,-17" />
        <path
           id="upeyecontour"
           d="M 34.5,-8.5 C 28,-15.5 16,-16 11,-8 h 2 c 5,-8 17,-4.5 18,-1 v 1" />
        <circle
           id="pupil"
           cx="22"
           cy="-9"
           r="4.5" />
        <path
           id="loweyecontour"
           d="m 11,-8 c 5,4.5 16,5 23.5,-0.5 L 31,-9 c -5,5.5 -13,5 -18,1 v -1" />
        <path
           id="lowpalpebra"
           d="M 35,-6 C 26.5,0.5 18,0 13,-3 8,-6 8,-7 9,-7 c 1,0 2,1 6,3 4,2 10,2 20,-2" />
        <path
           id="nose"
           d="m 10.5,9 a 3,3 0 1 1 -4,3 C 6,13 4,16 0,16 h -1 l 1,1.5 c 1,0 4,0 6,-1.5 a 4.5,4.5 0 1 0 4.5,-7" />
        <path
           id="uplip1"
           d="M 16.5,30 C 12,27 10,22.5 5,22.5 4,22.5 2,23 0,24 h -1 l 1,1.5 c 2,0 5,-2.5 8.5,-0.5 3.5,2 5.5,4 8,5" />
        <path
           id="midlip"
           d="M 15,30 C 5,27 3,29 0,29 h -1 l 1,2 c 4,0 6,-3 15,-1" />
        <path
           id="uplip2"
           d="M 16.5,30 C 5.5,29 9,35.5 0,35.5 H -1 L 0,37 c 11,0 6,-6 16.5,-7" />
        <path
           id="chin"
           d="M 9,46 A 9,9 0 0 0 -9,46 9.25,9.25 0 0 1 9,46" />
      </g>
      <use
         xlink:href="#face_right"
         transform="scale(-1,1)"
         id="use11120" />
    </g>
  </g>
  <text
     xml:space="preserve"
     style="font-size:46.0278px;line-height:1.25;font-family:Arial;-inkscape-font-specification:Arial;stroke-width:3.83561"
     x="319.18555"
     y="432.12479"
     id="text32602"><tspan
       sodipodi:role="line"
       id="tspan32600"
       style="font-style:normal;font-variant:normal;font-weight:normal;font-stretch:normal;font-family:'Franklin Gothic Heavy';-inkscape-font-specification:'Franklin Gothic Heavy, ';fill:#1e4e7c;fill-opacity:1;stroke-width:3.83561"
       x="319.18555"
       y="432.12479">RAICYT</tspan></text>
</svg>
